Coordinates
version=1
nRows=33
nColumns=33
inDegrees=yes

Units are S.I. units (second, meters, Newtons, ...)
Angles are in degrees.

endheader
time	ground_thorax_rot_x	ground_thorax_rot_y	ground_thorax_rot_z	ground_thorax_tx	ground_thorax_ty	ground_thorax_tz	clav_prot_r	clav_elev_r	scapula_abduction_r	scapula_elevation_r	scapula_upward_rot_r	scapula_winging_r	shoulder_elv_r	plane_of_elev_r	axial_rot_r	elbow_flexion_r	pro_sup_r	wrist_flex_r	wrist_dev_r	clav_prot_l	clav_elev_l	scapula_abduction_l	scapula_elevation_l	scapula_upward_rot_l	scapula_winging_l	shoulder_elv_l	plane_of_elev_l	axial_rot_l	elbow_flexion_l	pro_sup_l	wrist_flex_l	wrist_dev_l	
2.6700	39.299619	-5.934093	1.010443	-220.058419	853.812649	-7.294298	12.512855	35.996741	31.562661	45.000000	-45.000000	1364.639425	-3345.466861	147.192181	180.000000	729.266928	60.908675	26.414419	13.241367	12.177648	-45.000000	-38.691743	45.000000	-45.000000	-3865.942702	-2617.510110	139.072285	-180.000000	1088.373372	-305.500702	11.190017	-25.000000	
2.6800	39.284479	-6.008235	0.767306	-220.579212	855.564817	-7.265280	12.556563	35.984900	31.641410	45.000000	-45.000000	1364.538561	-3345.353807	147.146254	180.000000	729.331843	60.485534	26.413238	13.257895	12.147956	-45.000000	-38.667692	45.000000	-45.000000	-3865.843754	-2617.377582	139.062811	-180.000000	1088.296908	-306.740612	11.486759	-25.000000	
2.6900	39.274020	-6.095285	0.521119	-221.014881	857.260438	-7.231538	12.617139	35.975449	31.740414	45.000000	-45.000000	1364.436241	-3345.241497	147.103373	180.000000	729.393066	60.103644	26.418394	13.254399	12.092462	-45.000000	-38.630535	45.000000	-45.000000	-3865.767555	-2617.234832	139.051924	-180.000000	1088.242018	-307.892792	11.778872	-25.000000	
2.7000	39.263413	-6.159617	0.285536	-221.265553	858.836591	-7.189639	12.642665	35.972078	31.798944	45.000000	-45.000000	1364.340364	-3345.111347	147.042101	180.000000	729.485217	59.837067	26.433613	13.256377	12.101960	-45.000000	-38.666156	45.000000	-45.000000	-3865.680243	-2617.103628	139.017440	-180.000000	1088.212898	-308.848931	11.979654	-25.000000	
2.7100	39.252743	-6.206927	0.072153	-221.320490	860.285811	-7.137438	12.649677	35.969472	31.845907	45.000000	-45.000000	1364.248933	-3344.977227	146.976202	180.000000	729.592122	59.675988	26.456554	13.248901	12.140084	-45.000000	-38.735362	45.000000	-45.000000	-3865.595201	-2616.974953	138.970508	-180.000000	1088.209770	-309.608530	12.110627	-25.000000	
2.7200	39.239099	-6.228317	-0.105456	-221.157594	861.594545	-7.073307	12.636670	35.964598	31.875393	45.000000	-45.000000	1364.169473	-3344.836787	146.913793	180.000000	729.717804	59.623943	26.489674	13.227592	12.201216	-45.000000	-38.830704	45.000000	-44.999999	-3865.515847	-2616.846596	138.920333	-180.000000	1088.234550	-310.158723	12.178526	-25.000000	
2.7300	39.224247	-6.228301	-0.249343	-220.781087	862.766504	-6.997424	12.601204	35.953499	31.896060	45.000000	-45.000000	1364.103134	-3344.688779	146.853190	180.000000	729.845368	59.671405	26.530930	13.192453	12.274536	-45.000000	-38.944367	45.000000	-44.999999	-3865.444255	-2616.719282	138.866084	-180.000000	1088.287028	-310.516833	12.194430	-25.000000	
2.7400	39.204691	-6.210634	-0.360651	-220.209111	863.814924	-6.911891	12.550756	35.933967	31.916407	45.000000	-45.000000	1364.049972	-3344.540683	146.804700	180.000000	729.984590	59.803518	26.585971	13.139803	12.342719	-45.000000	-39.059268	45.000000	-44.999998	-3865.387719	-2616.584401	138.816654	-180.000000	1088.367040	-310.709675	12.183483	-25.000000	
2.7500	39.183985	-6.180022	-0.446685	-219.462419	864.755450	-6.820422	12.485288	35.910335	31.942409	45.000000	-45.000000	1364.005458	-3344.392977	146.763078	180.000000	730.125840	60.015271	26.652410	13.075427	12.401276	-45.000000	-39.175335	45.000000	-44.999996	-3865.344833	-2616.444602	138.767406	-180.000000	1088.469484	-310.764766	12.146983	-25.000000	
2.7600	39.158182	-6.148366	-0.519191	-218.563890	865.606049	-6.727453	12.421639	35.886720	31.981435	45.000000	-45.000000	1363.965807	-3344.252255	146.728180	180.000000	730.281652	60.302746	26.735877	12.999660	12.442278	-45.000000	-39.284979	45.000000	-44.999992	-3865.319995	-2616.292290	138.718306	-180.000000	1088.591521	-310.705559	12.099099	-25.000000	
2.7700	39.130802	-6.128777	-0.598611	-217.536794	866.386675	-6.637185	12.360559	35.866176	32.037414	45.000000	-45.000000	1363.924746	-3344.113838	146.686360	180.000000	730.443159	60.663460	26.835639	12.916437	12.463937	-45.000000	-39.400616	45.000000	-44.999986	-3865.310347	-2616.131179	138.658289	-180.000000	1088.731859	-310.556374	12.039832	-25.000000	
2.7800	39.097025	-6.126491	-0.685293	-216.403000	867.119767	-6.552775	12.317518	35.849919	32.117908	45.000000	-45.000000	1363.876180	-3343.988217	146.640967	180.000000	730.622008	61.089852	26.953179	12.825302	12.465892	-45.000000	-39.512037	45.000000	-44.999975	-3865.314497	-2615.954852	138.590068	-180.000000	1088.883240	-310.338141	11.975662	-25.000000	
2.7900	39.061745	-6.134734	-0.775850	-215.181106	867.829933	-6.476070	12.282743	35.838493	32.214210	45.000000	-45.000000	1363.820154	-3343.864903	146.588310	180.000000	730.805151	61.570252	27.081295	12.727873	12.453394	-45.000000	-39.626987	45.000000	-44.999955	-3865.323915	-2615.769225	138.512622	-180.000000	1089.041330	-310.073514	11.902541	-25.000000	
2.8000	39.023911	-6.153772	-0.866160	-213.885165	868.544079	-6.407675	12.264258	35.831916	32.326810	45.000000	-45.000000	1363.754927	-3343.743076	146.528487	180.000000	730.992005	62.089063	27.216217	12.626588	12.433796	-45.000000	-39.738954	45.000000	-44.999919	-3865.334415	-2615.569934	138.427537	-180.000000	1089.200881	-309.779187	11.820866	-25.000000	
2.8100	38.989374	-6.177625	-0.958794	-212.524290	869.290543	-6.347363	12.243230	35.827076	32.444883	45.000000	-45.000000	1363.680680	-3343.608456	146.457556	180.000000	731.174442	62.627659	27.353074	12.524301	12.414638	-45.000000	-39.863643	45.000000	-44.999855	-3865.337780	-2615.360270	138.331172	-180.000000	1089.365643	-309.467755	11.725985	-25.000000	
2.8200	38.958742	-6.204471	-1.046672	-211.102966	870.098252	-6.294413	12.225909	35.824958	32.575972	45.000000	-45.000000	1363.591530	-3343.465883	146.381347	180.000000	731.355082	63.167117	27.487732	12.422378	12.395915	-45.000000	-39.989278	45.000000	-44.999740	-3865.333145	-2615.132449	138.227937	-180.000000	1089.533809	-309.144997	11.614521	-25.000000	
2.8300	38.935250	-6.227713	-1.128835	-209.622189	870.995028	-6.247812	12.199119	35.823654	32.713446	45.000000	-45.000000	1363.487841	-3343.306351	146.299850	180.000000	731.532088	63.691427	27.616352	12.322123	12.378404	-45.000000	-40.124530	45.000000	-44.999534	-3865.314960	-2614.885939	138.117189	-180.000000	1089.709882	-308.813889	11.481893	-25.000000	
2.8400	38.918674	-6.249777	-1.206310	-208.080610	872.005748	-6.206262	12.172708	35.824045	32.863155	45.000000	-45.000000	1363.362803	-3343.132756	146.211516	180.000000	731.708505	64.191359	27.736863	12.225316	12.362477	-45.000000	-40.263664	45.000000	-44.999166	-3865.283236	-2614.615370	137.998389	-180.000000	1089.894594	-308.474183	11.324356	-25.000000	
2.8500	38.908944	-6.266697	-1.277919	-206.475714	873.149970	-6.168130	12.139313	35.821816	33.023635	45.000000	-45.000000	1363.215273	-3342.944398	146.115845	180.000000	731.886791	64.665139	27.847647	12.131668	12.352277	-45.000000	-40.409194	45.000000	-44.998506	-3865.232369	-2614.318768	137.868147	-180.000000	1090.088925	-308.124249	11.139751	-25.000000	
2.8600	38.907293	-6.281092	-1.344791	-204.804409	874.439922	-6.131453	12.110097	35.818876	33.201244	45.000000	-45.000000	1363.041268	-3342.742672	146.011235	180.000000	732.067182	65.117725	27.947900	12.041681	12.347735	-45.000000	-40.554925	45.000000	-44.997324	-3865.164745	-2613.994229	137.724975	-180.000000	1090.292207	-307.763297	10.927338	-25.000000	
2.8700	38.912670	-6.290983	-1.404649	-203.063186	875.879015	-6.094058	12.087220	35.816538	33.396298	45.000000	-45.000000	1362.842708	-3342.526999	145.898100	180.000000	732.252406	65.557488	28.037113	11.953622	12.351743	-45.000000	-40.702272	45.000000	-44.995206	-3865.078325	-2613.643912	137.568832	-180.000000	1090.503096	-307.392109	10.688843	-25.000000	
2.8800	38.926732	-6.298210	-1.457992	-201.247794	877.461400	-6.053847	12.088701	35.819449	33.616868	45.000000	-45.000000	1362.615696	-3342.302144	145.775750	180.000000	732.440455	65.994723	28.115212	11.867906	12.367310	-45.000000	-40.840326	45.000000	-44.991416	-3864.977462	-2613.266829	137.396342	-180.000000	1090.716232	-307.013435	10.426054	-25.000000	
2.8900	38.949443	-6.310291	-1.505185	-199.353277	879.172067	-6.009155	12.146942	35.837764	33.879005	45.000000	-45.000000	1362.357590	-3342.072648	145.644940	180.000000	732.630794	66.439868	28.183096	11.785410	12.393241	-45.000000	-40.958487	45.000000	-44.984614	-3864.868477	-2612.869445	137.209329	-180.000000	1090.926824	-306.630193	10.141855	-25.000000	
2.9000	38.980409	-6.320812	-1.544589	-197.373504	880.988492	-5.959041	12.256280	35.871036	34.179155	45.000000	-45.000000	1362.071258	-3341.840142	145.508032	180.000000	732.823031	66.893165	28.240511	11.704770	12.426862	-45.000000	-41.058077	45.000000	-44.972466	-3864.756658	-2612.454521	137.011915	-180.000000	1091.134286	-306.252137	9.841706	-24.999999	
2.9100	39.016295	-6.322855	-1.570455	-195.301707	882.882132	-5.903422	12.392985	35.914818	34.508754	45.000000	-45.000000	1361.766098	-3341.600493	145.367154	180.000000	733.019206	67.344983	28.286263	11.623875	12.463726	-45.000000	-41.148478	45.000000	-44.950606	-3864.642935	-2612.031835	136.813654	-180.000000	1091.337159	-305.894832	9.535198	-24.999999	
2.9200	39.053552	-6.302391	-1.579050	-193.130750	884.820677	-5.842937	12.528271	35.958730	34.848496	45.000000	-45.000000	1361.451668	-3341.352867	145.223807	180.000000	733.219913	67.777982	28.318054	11.540924	12.499386	-45.000000	-41.241462	45.000000	-44.911726	-3864.525273	-2611.601099	136.619029	-180.000000	1091.534130	-305.579269	9.231236	-24.999999	
2.9300	39.088183	-6.252929	-1.567290	-190.854620	886.769189	-5.778634	12.626776	35.992733	35.189368	45.000000	-45.000000	1361.137022	-3341.096409	145.079807	180.000000	733.425341	68.173383	28.332385	11.453921	12.533052	-45.000000	-41.349828	45.000000	-44.841305	-3864.400456	-2611.172214	136.433597	-180.000000	1091.719966	-305.325011	8.942913	-24.999997	
2.9400	39.117795	-6.173509	-1.538643	-188.468844	888.691918	-5.711499	12.703091	36.018786	35.524245	45.000000	-45.000000	1360.827980	-3340.831524	144.935660	180.000000	733.635913	68.514835	28.326964	11.363324	12.553209	-45.000000	-41.482060	45.000000	-44.717323	-3864.271407	-2610.750285	136.268205	-180.000000	1091.896370	-305.152025	8.675543	-24.999996	
2.9500	39.138947	-6.071379	-1.499693	-185.971605	890.552892	-5.642017	12.751535	36.037007	35.853590	45.000000	-45.000000	1360.530491	-3340.559395	144.788834	180.000000	733.850845	68.791216	28.299434	11.268873	12.560306	-45.000000	-41.647218	45.000000	-44.489203	-3864.136596	-2610.354481	136.131502	-180.000000	1092.051716	-305.073439	8.440371	-24.999992	
2.9600	39.150795	-5.958122	-1.462241	-183.363710	892.316934	-5.569847	12.840756	36.064873	36.191521	45.000000	-45.000000	1360.243197	-3340.290425	144.643856	180.000000	734.068805	69.001903	28.249471	11.171876	12.537809	-45.000000	-41.839006	45.000000	-44.117958	-3864.004899	-2609.992010	136.030940	-180.000000	1092.180788	-305.098560	8.238672	-24.999986	
2.9700	39.152735	-5.843592	-1.432290	-180.648851	893.949867	-5.493723	12.966977	36.104041	36.550967	45.000000	-44.999999	1359.963241	-3340.032747	144.499407	180.000000	734.284798	69.151113	28.176820	11.072312	12.492513	-45.000000	-42.052863	45.000000	-43.576982	-3863.878867	-2609.676226	135.963739	-180.000000	1092.272937	-305.231045	8.076985	-24.999975	
2.9800	39.144926	-5.732020	-1.410621	-177.832670	895.419345	-5.411516	13.159378	36.163525	36.937214	45.000000	-44.999999	1359.690865	-3339.790325	144.359893	180.000000	734.499744	69.244794	28.081563	10.967796	12.413518	-45.000000	-42.282051	45.000000	-42.872267	-3863.767418	-2609.409921	135.933554	-180.000000	1092.330738	-305.477506	7.956466	-24.999956	
2.9900	39.125984	-5.619141	-1.391114	-174.922314	896.695056	-5.320467	13.352645	36.227912	37.338914	45.000000	-44.999998	1359.426689	-3339.562439	144.216651	180.000000	734.709995	69.286902	27.965887	10.858322	12.326642	-45.000000	-42.526972	45.000000	-42.025751	-3863.665746	-2609.193507	135.928220	-180.000000	1092.349436	-305.844456	7.881892	-24.999921	
